HIERARCHY
ROOT Hips
{
	OFFSET 0.00000 0.00000 0.00000
	CHANNELS 6 Xposition Yposition Zposition Zrotation Yrotation Xrotation 
	JOINT LHipJoint
	{
		OFFSET 0 0 0
		CHANNELS 3 Zrotation Yrotation Xrotation
		JOINT LeftHip
		{
			OFFSET 1.34019 -1.87553 0.90315
			CHANNELS 3 Zrotation Yrotation Xrotation
			JOINT LeftKnee
			{
				OFFSET 2.55316 -7.01474 0.00000
				CHANNELS 3 Zrotation Yrotation Xrotation
				JOINT LeftAnkle
				{
					OFFSET 2.64657 -7.27139 0.00000
					CHANNELS 3 Zrotation Yrotation Xrotation
					JOINT LeftToe
					{
						OFFSET 0.24207 -0.66507 2.14489
						CHANNELS 3 Zrotation Yrotation Xrotation
						End Site
						{
							OFFSET 0.00000 -0.00000 1.12451
						}
					}
				}
			}
		}
	}
	JOINT RHipJoint
	{
		OFFSET 0 0 0
		CHANNELS 3 Zrotation Yrotation Xrotation
		JOINT RightHip
		{
			OFFSET -1.28320 -1.87553 0.90315
			CHANNELS 3 Zrotation Yrotation Xrotation
			JOINT RightKnee
			{
				OFFSET -2.60484 -7.15674 0.00000
				CHANNELS 3 Zrotation Yrotation Xrotation
				JOINT RightAnkle
				{
					OFFSET -2.60296 -7.15159 0.00000
					CHANNELS 3 Zrotation Yrotation Xrotation
					JOINT RightToe
					{
						OFFSET -0.31082 -0.85398 2.28998
						CHANNELS 3 Zrotation Yrotation Xrotation
						End Site
						{
							OFFSET -0.00000 -0.00000 1.21611
						}
					}
				}
			}
		}
	}
	JOINT lowerback
	{
		OFFSET 0 0 0
		CHANNELS 3 Zrotation Yrotation Xrotation
		JOINT Chest
		{
			OFFSET -0.00160 2.05581 -0.15156
			CHANNELS 3 Zrotation Yrotation Xrotation
			JOINT Chest2
			{
				OFFSET 0.04594 2.06326 -0.01617
				CHANNELS 3 Zrotation Yrotation Xrotation
				JOINT lowerneck
				{
					OFFSET 0 0 0
					CHANNELS 3 Zrotation Yrotation Xrotation
					JOINT Neck
					{
						OFFSET 0.03753 1.73883 0.26751
						CHANNELS 3 Zrotation Yrotation Xrotation
						JOINT Head
						{
							OFFSET -0.09795 1.76129 -0.31794
							CHANNELS 3 Zrotation Yrotation Xrotation
							End Site
							{
								OFFSET -0.03611 1.79987 -0.13846
							}
						}
					}
				}
				JOINT LeftCollar
				{
					OFFSET 0 0 0
					CHANNELS 3 Zrotation Yrotation Xrotation
					JOINT LeftShoulder
					{
						OFFSET 3.30667 1.29205 -0.22445
CHANNELS 3 Zrotation Xrotation Yrotation
						JOINT LeftElbow
						{
OFFSET 0 -4.927850 -0.000000
CHANNELS 3 Zrotation Xrotation Yrotation
							JOINT LeftWrist
							{
OFFSET 0 -3.440520 0.000000
CHANNELS 3 Zrotation Xrotation Yrotation
								JOINT lhand
								{
									OFFSET 0 0 0
CHANNELS 3 Zrotation Xrotation Yrotation
									JOINT LFingers
									{
OFFSET 0 -0.654330 0.000000
CHANNELS 3 Zrotation Xrotation Yrotation
										End Site
										{
OFFSET 0 -0.527530 0.000000
										}
									}
								}
								JOINT LThumb
								{
OFFSET 0 0.000000 0.000000
CHANNELS 3 Zrotation Xrotation Yrotation
									End Site
									{
OFFSET 0 -0.535590 0.535590
									}
								}
							}
						}
					}
				}
				JOINT RightCollar
				{
					OFFSET 0 0 0
					CHANNELS 3 Zrotation Yrotation Xrotation
					JOINT RightShoulder
					{
						OFFSET -3.20032 1.49783 -0.27688
CHANNELS 3 Zrotation Xrotation Yrotation
						JOINT RightElbow
						{
OFFSET 0 -5.091810 -0.000000
CHANNELS 3 Zrotation Xrotation Yrotation
							JOINT RightWrist
							{
OFFSET 0 -3.498650 -0.000000
CHANNELS 3 Zrotation Xrotation Yrotation
								JOINT rhand
								{
									OFFSET 0 0 0
CHANNELS 3 Zrotation Xrotation Yrotation
									JOINT RFingers
									{
OFFSET 0 -0.666410 0.000000
CHANNELS 3 Zrotation Xrotation Yrotation
										End Site
										{
OFFSET 0 -0.537280 0.000000
										}
									}
								}
								JOINT RThumb
								{
OFFSET 0 0.000000 0.000000
CHANNELS 3 Zrotation Xrotation Yrotation
									End Site
									{
OFFSET 0 -0.545480 0.545480
									}
								}
							}
						}
					}
				}
			}
		}
	}
}
MOTION
Frames: 9
Frame Time: 0.008333333333333333
0.480400 17.994700 -30.758800 -2.031900 1.892400 2.595300 0.000000 0.000000 0.000000 -18.531100 -2.597900 -5.444700 1.578800 7.927300 22.493400 0.133700 9.811400 -16.001900 0.192900 -2.828300 -7.801100 0.000000 0.000000 0.000000 21.945000 -0.405500 -8.786300 -2.169300 -9.210200 26.455100 0.134100 -15.598700 -20.722200 -0.018100 0.869000 -2.388500 -2.452500 -0.227700 1.647800 3.862100 -0.242500 -3.695900 5.419200 0.051300 -4.730700 5.833200 1.836100 -19.889200 -6.088200 2.414600 24.465200 -2.853600 0.863300 11.405000 -0.000000 -0.000000 0.000000 0.745300 10.245500 -23.689400 16.066300 -25.610500 3.674600 8.433200 -4.215000 -1.379800 0.000000 0.000000 0.000000 -7.125000 0.000000 0.000000 -14.384500 31.169800 -5.003000 -0.000000 -0.000000 0.000000 -7.087000 8.695100 14.672600 -13.947100 -22.659100 -2.807700 -16.065100 -2.827000 1.866500 0.000000 0.000000 0.000000 7.125000 0.000000 -0.000000 8.432200 31.849400 2.739000
0.525757 18.010977 -30.715647 -1.822785 3.478106 3.231817 0.000000 0.000000 0.000000 -19.039607 -5.176830 -5.119290 1.542426 7.839798 22.228549 0.040591 10.782875 -15.948342 0.187961 -2.792176 -7.700605 0.000000 0.000000 0.000000 21.612471 -1.356995 -9.505555 -2.129514 -9.130790 26.205255 0.149070 -15.838594 -20.921403 -0.016339 0.825233 -2.268128 -0.722460 -1.164157 0.511367 2.933017 -1.469940 -3.858845 3.498084 -0.650730 -4.170662 6.448888 2.304011 -19.304762 -5.737304 2.790489 23.900492 -2.756327 1.142361 11.111081 0.000000 0.000000 0.000000 1.706596 10.552986 -22.933317 16.264406 -25.877819 3.760614 8.562894 -4.723838 -1.422775 0.000000 0.000000 0.000000 -7.125000 0.000000 0.000000 -14.290142 31.215405 -4.952087 0.000000 0.000000 0.000000 -6.068459 8.489063 15.207802 -13.714099 -22.324488 -2.718529 -16.329845 -2.115892 1.206132 0.000000 0.000000 0.000000 7.125000 0.000000 0.000000 8.156945 31.174610 2.781502
0.493805 18.010014 -30.694017 -1.854719 2.618756 3.264904 0.000000 0.000000 0.000000 -18.898416 -4.261970 -5.221971 1.527988 7.804617 22.122127 0.056666 10.689825 -16.051284 0.188831 -2.798551 -7.718445 0.000000 0.000000 0.000000 21.718123 -0.691492 -9.267487 -2.131671 -9.135120 26.218890 0.138105 -15.745009 -20.899657 -0.016746 0.835806 -2.297090 -0.888339 -0.685587 0.945970 2.566775 -0.841131 -4.142392 3.199109 -0.328334 -4.757227 7.012471 2.147962 -19.276386 -5.656705 2.373569 24.076908 -2.889315 1.017089 11.148312 0.000000 0.000000 0.000000 2.623562 10.909766 -23.938524 16.280397 -25.899391 3.767571 8.578062 -4.801962 -1.474283 0.000000 0.000000 0.000000 -7.125000 0.000000 0.000000 -14.286214 31.266252 -4.932664 0.000000 0.000000 0.000000 -5.184334 9.084022 14.506945 -13.814763 -22.469238 -2.756952 -16.289705 -2.027717 1.140889 0.000000 0.000000 0.000000 7.125000 0.000000 0.000000 8.182538 31.106567 2.803826
0.480188 18.011469 -30.669847 -1.980872 2.149746 3.530069 0.000000 0.000000 0.000000 -18.698789 -3.965960 -5.518952 1.533996 7.819314 22.166693 0.060147 10.756176 -16.189684 0.188122 -2.793657 -7.704742 0.000000 0.000000 0.000000 21.892185 -0.357620 -9.390503 -2.123947 -9.119694 26.170414 0.127812 -15.608860 -20.807349 -0.017700 0.858130 -2.358594 -0.902172 -0.537572 0.641140 2.546686 -0.645384 -4.148927 3.171778 -0.232655 -4.602702 7.672518 2.434331 -19.669534 -6.185830 2.693533 24.259955 -3.153596 1.153327 11.336466 0.000000 0.000000 0.000000 2.754131 10.892840 -23.975563 16.296608 -25.921166 3.774727 8.651014 -4.796306 -1.323917 0.000000 0.000000 0.000000 -7.125000 0.000000 0.000000 -14.206320 31.120917 -4.954671 0.000000 0.000000 0.000000 -5.001187 8.911643 14.418926 -13.773055 -22.409443 -2.740973 -16.366996 -2.046643 1.034896 0.000000 0.000000 0.000000 7.125000 0.000000 0.000000 8.111563 30.998649 2.800320
0.470080 18.010309 -30.656760 -2.017857 2.270719 3.566699 0.000000 0.000000 0.000000 -18.603299 -4.016554 -5.533312 1.538046 7.829237 22.196512 0.066966 10.691196 -16.198141 0.191337 -2.817198 -7.770165 0.000000 0.000000 0.000000 21.990030 -0.392031 -9.373075 -2.119971 -9.111588 26.144973 0.127763 -15.662920 -20.889213 -0.017000 0.840917 -2.311151 -1.035681 -0.560561 0.593664 2.557387 -0.681481 -4.061444 3.257672 -0.247737 -4.480692 7.824851 2.499589 -20.119020 -6.338496 2.758385 24.619940 -3.236366 1.173901 11.571533 0.000000 0.000000 0.000000 2.735365 10.960723 -23.915853 16.378847 -26.031641 3.810732 8.617845 -4.707677 -1.726953 0.000000 0.000000 0.000000 -7.125000 0.000000 0.000000 -14.294573 31.515027 -4.847469 0.000000 0.000000 0.000000 -4.929951 8.783845 14.353658 -13.768157 -22.402270 -2.739130 -16.286298 -1.991149 1.070110 0.000000 0.000000 0.000000 7.125000 0.000000 0.000000 8.178648 31.033493 2.816934
0.465043 18.009100 -30.639764 -2.071139 2.222299 3.583367 0.000000 0.000000 0.000000 -18.535659 -4.008286 -5.495803 1.541793 7.838308 22.223946 0.069729 10.727578 -16.285130 0.191393 -2.817328 -7.770599 0.000000 0.000000 0.000000 22.072320 -0.329688 -9.282270 -2.111214 -9.093928 26.089562 0.129979 -15.702066 -20.924089 -0.017186 0.846570 -2.326788 -1.078553 -0.631747 0.507174 2.603422 -0.774647 -4.187848 3.334492 -0.289435 -4.556880 8.195492 2.681031 -19.426853 -6.642877 3.024774 24.283138 -3.362189 1.298834 11.342501 0.000000 0.000000 0.000000 2.677989 11.450578 -23.697270 16.393530 -26.051335 3.817183 8.455069 -4.720207 -2.097367 0.000000 0.000000 0.000000 -7.125000 0.000000 0.000000 -14.480909 31.872852 -4.785478 0.000000 0.000000 0.000000 -5.013745 9.220204 14.715039 -13.786150 -22.428138 -2.746017 -16.271778 -2.088322 1.076718 0.000000 0.000000 0.000000 7.125000 0.000000 0.000000 8.190750 31.040096 2.819922
0.465949 18.009200 -30.628877 -2.138684 2.270212 3.644059 0.000000 0.000000 0.000000 -18.484282 -4.201711 -5.526175 1.556572 7.873931 22.331792 0.060904 10.881443 -16.367669 0.191337 -2.817298 -7.770450 0.000000 0.000000 0.000000 22.150657 -0.280330 -9.237068 -2.096234 -9.063767 25.995021 0.129239 -15.729742 -20.973358 -0.016400 0.827331 -2.273826 -1.075961 -0.685857 0.422973 2.700796 -0.841753 -4.283124 3.437465 -0.319315 -4.603130 7.467322 2.480005 -19.040000 -6.232606 2.905807 24.713033 -3.113218 1.236650 11.399036 0.000000 0.000000 0.000000 2.462431 11.728029 -23.325051 16.330025 -25.966098 3.789324 8.467850 -4.522099 -1.838150 0.000000 0.000000 0.000000 -7.125000 0.000000 0.000000 -14.429407 31.619507 -4.858400 0.000000 0.000000 0.000000 -5.269649 9.570307 15.125841 -13.855230 -22.527380 -2.772407 -16.268154 -2.282742 1.082258 0.000000 0.000000 0.000000 7.125000 0.000000 0.000000 8.194118 31.045832 2.819973
0.487282 18.007050 -30.620839 -2.146940 2.297715 3.747471 0.000000 0.000000 0.000000 -18.659423 -4.638911 -5.591123 1.583590 7.938640 22.527961 0.000398 11.527184 -16.410507 0.186619 -2.782214 -7.673024 0.000000 0.000000 0.000000 22.043898 -0.474638 -9.352306 -2.087731 -9.046531 25.940943 0.098707 -15.466307 -20.913004 -0.017790 0.861394 -2.367481 -0.887112 -0.514738 0.369449 2.557577 -0.610709 -4.398081 3.172947 -0.211973 -4.710927 7.369419 2.250888 -18.461775 -6.065628 2.601501 24.588247 -3.076985 1.118379 11.209084 0.000000 0.000000 0.000000 2.635119 12.035478 -23.850489 16.464178 -26.145921 3.848224 8.486094 -4.801526 -1.905284 0.000000 0.000000 0.000000 -7.125000 0.000000 0.000000 -14.425789 31.685865 -4.833285 0.000000 0.000000 0.000000 -5.102174 9.993993 14.745536 -13.896744 -22.586891 -2.788358 -16.300113 -2.195263 1.256298 0.000000 0.000000 0.000000 7.125000 0.000000 0.000000 8.185258 31.225778 2.781148
0.526834 18.002634 -30.613034 -2.251952 2.140176 3.744381 0.000000 0.000000 0.000000 -18.724609 -4.632574 -5.671718 1.613908 8.010772 22.746865 -0.007136 11.738660 -16.605304 0.165662 -2.622060 -7.228282 0.000000 0.000000 0.000000 22.000844 -0.410686 -9.236603 -2.073330 -9.017177 25.848990 0.099351 -15.403644 -20.812353 -0.020683 0.928466 -2.552091 -0.509700 -0.224346 0.498629 2.356463 -0.219874 -4.267513 2.733632 -0.037807 -4.672251 7.003113 1.818028 -18.357185 -5.632286 1.972044 24.207870 -2.939418 0.850055 10.986757 0.000000 0.000000 0.000000 2.907732 11.855495 -24.501164 16.437028 -26.109634 3.836281 8.641078 -4.893561 -1.741982 0.000000 0.000000 0.000000 -7.125000 0.000000 0.000000 -14.278725 31.530407 -4.836321 0.000000 0.000000 0.000000 -4.784987 9.852744 14.065271 -13.821072 -22.478342 -2.759304 -16.340811 -1.909420 1.110247 0.000000 0.000000 0.000000 7.125000 0.000000 0.000000 8.139232 31.075881 2.794798
